<?xml version="1.0" encoding="UTF-8"?>
<svg xmlns="http://www.w3.org/2000/svg" xmlns:xlink="http://www.w3.org/1999/xlink" width="350px" height="300px" viewBox="0 0 350 300" version="1.1"> 
<g id="surface1">
<path style=" stroke:none;fill-rule:nonzero;fill:rgb(7.45098%,17.647059%,54.901961%);fill-opacity:1;" d="M 152.65625 20.976562 C 112.109375 27.539062 76.875 53.320312 58.4375 90.117188 C 46.289062 114.335938 42.265625 146.679688 48.125 174.453125 C 57.695312 220.976562 93.28125 258.75 139.179688 271.25 C 149.882812 274.0625 153.632812 274.453125 170.15625 274.570312 C 186.640625 274.570312 190.429688 274.179688 200.625 271.367188 C 245.664062 259.023438 279.296875 224.804688 291.210938 179.492188 C 295.351562 163.710938 295.820312 137.421875 292.421875 121.367188 C 280.15625 63.4375 231.953125 22.34375 174.375 20.351562 C 166.367188 20.117188 156.523438 20.351562 152.65625 20.976562 Z M 213.867188 95.078125 L 213.867188 111.09375 L 207.773438 111.09375 L 207.773438 85.195312 L 90 85.195312 L 90 209.882812 L 207.773438 209.882812 L 207.773438 198.75 C 207.773438 187.773438 207.773438 187.65625 210.820312 187.65625 L 213.867188 187.65625 L 213.867188 216.054688 L 83.945312 216.054688 L 83.945312 79.023438 L 213.867188 79.023438 Z M 147.070312 121.25 C 147.070312 122.109375 146.210938 127.148438 145.234375 132.460938 C 144.296875 137.773438 143.4375 142.96875 143.4375 143.828125 C 143.4375 144.804688 149.023438 139.765625 155.820312 132.578125 C 167.460938 120.507812 168.320312 119.765625 173.046875 119.765625 L 177.929688 119.765625 L 172.460938 125.546875 C 169.53125 128.90625 165.664062 133.203125 163.828125 135.195312 L 160.546875 138.90625 L 165.78125 155.9375 L 171.132812 172.851562 L 160.78125 172.851562 L 156.796875 159.648438 L 152.890625 146.40625 L 146.445312 153.203125 C 141.015625 159.023438 140.039062 160.742188 139.296875 166.289062 L 138.4375 172.851562 L 133.476562 172.851562 C 128.75 172.851562 128.632812 172.734375 129.21875 169.375 C 129.453125 167.539062 131.523438 155.664062 133.710938 142.851562 L 137.734375 119.765625 L 142.460938 119.765625 C 145.390625 119.765625 147.070312 120.351562 147.070312 121.25 Z M 193.203125 138.90625 C 194.804688 149.492188 196.367188 158.28125 196.71875 158.515625 C 197.109375 158.75 201.210938 150.117188 205.976562 139.375 C 214.453125 119.882812 214.453125 119.765625 218.359375 119.765625 C 220.546875 119.765625 222.34375 120.117188 222.34375 120.742188 C 222.34375 121.25 217.265625 132.96875 210.9375 146.914062 L 199.648438 172.226562 L 194.179688 172.578125 L 188.828125 172.96875 L 184.84375 148.515625 C 182.65625 135.078125 180.585938 123.085938 180.351562 121.835938 C 179.726562 120.117188 180.585938 119.765625 184.960938 119.765625 L 190.3125 119.765625 Z M 238.125 121.25 C 238.125 122.109375 237.304688 127.148438 236.328125 132.460938 C 235.351562 137.773438 234.492188 142.96875 234.492188 143.828125 C 234.492188 144.804688 240.078125 139.765625 246.875 132.578125 C 258.554688 120.507812 259.375 119.765625 264.140625 119.765625 L 268.984375 119.765625 L 263.515625 125.546875 C 260.625 128.90625 256.71875 133.203125 254.882812 135.195312 L 251.640625 138.90625 L 256.835938 155.9375 L 262.1875 172.851562 L 251.875 172.851562 L 247.851562 159.648438 L 243.984375 146.40625 L 237.539062 153.203125 C 232.070312 159.023438 231.09375 160.742188 230.390625 166.289062 L 229.53125 172.851562 L 224.53125 172.851562 C 219.804688 172.851562 219.6875 172.734375 220.273438 169.375 C 220.546875 167.539062 222.617188 155.664062 224.804688 142.851562 L 228.789062 119.765625 L 233.515625 119.765625 C 236.445312 119.765625 238.125 120.351562 238.125 121.25 Z M 238.125 121.25 "/>
</g>
</svg>
