<svg xmlns="http://www.w3.org/2000/svg" version="1.0" width="1094.000000" height="931.000000" preserveAspectRatio="xMidYMid meet">


<g class="currentLayer" style=""><title>Layer 1</title><g transform="translate(0,931) scale(0.10000000149011612,-0.10000000149011612) " fill="#132d8c" stroke="none" id="svg_1" class="selected" fill-opacity="1">
<path d="M2670 4735 l0 -2125 1995 0 1995 0 0 435 0 435 -74 0 c-56 0 -77 -4 -87 -17 -11 -13 -15 -83 -17 -340 l-3 -323 -1810 0 -1809 0 0 1935 0 1935 1810 0 1810 0 0 -405 0 -405 90 0 90 0 0 500 0 500 -1995 0 -1995 0 0 -2125z" id="svg_2" fill="#132d8c"/>
<path d="M4471 5545 c-41 -8 -80 -20 -88 -28 -17 -17 -51 -198 -179 -957 -52 -311 -98 -580 -101 -597 -5 -28 -2 -34 21 -43 41 -15 256 -13 256 3 0 7 7 67 15 132 25 201 49 261 157 386 118 138 259 266 278 254 18 -11 76 -183 160 -475 l87 -305 124 0 c68 0 132 3 141 7 21 9 16 29 -163 617 -71 234 -129 432 -128 440 0 9 121 140 269 291 l269 275 -115 3 c-181 4 -184 2 -533 -378 -277 -302 -418 -447 -426 -438 -9 9 24 222 84 548 37 195 46 267 38 272 -17 11 -81 8 -166 -7z" id="svg_3" fill="#132d8c"/>
<path d="M5740 5543 l-35 -18 1 -75 c2 -103 199 -1329 234 -1462 17 -62 44 -73 184 -73 l120 0 226 505 c369 825 472 1063 474 1095 l1 30 -71 -1 c-92 -2 -124 -19 -167 -91 -42 -69 -45 -76 -244 -538 -85 -198 -184 -421 -220 -495 l-66 -135 -14 45 c-12 41 -53 283 -158 929 -20 123 -40 232 -46 243 -26 49 -157 73 -219 41z" id="svg_4" fill="#132d8c"/>
<path d="M7290 5549 c-108 -18 -117 -24 -130 -82 -6 -29 -65 -371 -131 -762 -66 -390 -123 -725 -126 -742 -5 -28 -2 -34 21 -43 15 -5 78 -10 141 -10 l113 0 7 63 c34 318 52 356 280 587 57 58 117 113 134 123 l30 18 14 -28 c28 -57 70 -185 151 -468 l84 -290 123 0 c68 0 131 5 141 10 19 12 11 40 -180 670 l-119 390 261 268 c144 148 265 275 269 283 7 12 -11 14 -105 14 -181 -1 -169 8 -598 -455 -315 -340 -347 -372 -357 -362 -8 8 32 260 91 578 33 173 41 236 33 241 -15 10 -76 8 -147 -3z" id="svg_5" fill="#132d8c"/>
</g></g></svg>